<svg xmlns="http://www.w3.org/2000/svg" viewBox="0 0 623.62 255.12"><defs><style>.cls-1{fill:#fff;}.cls-2{fill:#231f20;}</style></defs><title>cooder</title><g id="BG"><rect class="cls-1" width="623.62" height="255.12"/></g><g id="Logo"><path class="cls-2" d="M66.77,156q-15.09,0-23.06-11a41.86,41.86,0,0,1-8-25.3c0-10.25,2.82-18.58,8.39-24.86S57,85.44,65.94,85.44a27.91,27.91,0,0,1,17.68,5.89c5.06,3.91,8.07,9.55,9,16.85H110.4V69.81H92.59v7.11C84.77,70.32,75.29,67,64,67q-19.7,0-34.78,14.93T14.17,119.78A57.12,57.12,0,0,0,28,157.7q13.85,16.44,37.93,16.47,34,0,47.66-30.31l-16.47-7.75Q87.73,156,66.77,156Z"/><path class="cls-2" d="M419.69,25.48h-39.4V43.16h19.48v40.1C389.58,72.37,377.6,66.92,364,66.92q-19.41,0-34.79,14.48a47.13,47.13,0,0,0-13.52,23.39,48.45,48.45,0,0,0-13.71-23A53.08,53.08,0,0,0,264.28,67Q242,67,226.48,82a49.1,49.1,0,0,0-12.94,20.82,47.88,47.88,0,0,0-13.2-21Q184.68,67,162.74,67,140.44,67,124.94,82t-15.51,38.51q0,23.45,15.38,38.56c10.25,10.06,22.87,15.06,38,15.06q22,0,37.67-14.87a48.72,48.72,0,0,0,13.13-21,50,50,0,0,0,12.75,20.82c10.25,10.06,22.87,15.06,38,15.06q22,0,37.67-14.87a48.41,48.41,0,0,0,13.58-22.61,43.61,43.61,0,0,0,13.2,22.68,50.25,50.25,0,0,0,34.78,13.51q21.33,0,36.26-16.52v14.86H438V153.54H419.69V25.48ZM185.73,145a32.09,32.09,0,0,1-45.87.07c-6.27-6.41-9.35-14.61-9.35-24.6,0-9.68,3-17.81,9.1-24.35s13.77-9.86,23.13-9.86a30.77,30.77,0,0,1,22.87,9.67c6.27,6.41,9.41,14.61,9.41,24.54S192,138.48,185.73,145Zm101.54,0a32.09,32.09,0,0,1-45.87.07c-6.27-6.41-9.35-14.61-9.35-24.6,0-9.68,3-17.81,9.1-24.35s13.77-9.86,23.13-9.86a30.77,30.77,0,0,1,22.87,9.67c6.27,6.41,9.41,14.61,9.41,24.54S293.42,138.48,287.27,145Zm102.57.77c-6.6,6.34-14.16,9.48-22.68,9.48a31.8,31.8,0,0,1-22.68-9c-6.34-6-9.48-14.61-9.48-25.75,0-9.87,3.08-18.13,9.23-24.86A29.59,29.59,0,0,1,367,85.44,34.22,34.22,0,0,1,389.65,94c6.72,5.77,10.12,14.22,10.12,25.5S396.44,139.38,389.84,145.72Z"/><path class="cls-2" d="M604,68.27c-7.69,0-13.77.64-18.19,1.86a29.91,29.91,0,0,0-12.62,7.75,40.52,40.52,0,0,0-9.36,14.8V69.81H527.51V87.49H548v66h-15.7a51.55,51.55,0,0,0,4-5.57l-17.62-7.75c-8.07,11.15-19.09,16.78-33,16.78-9.55,0-17.43-2.88-23.58-8.71s-9.86-13.39-11.08-22.74h85.27c-.45-19.41-6.15-34-17.24-43.82s-23.38-14.74-37-14.74q-20.86,0-36.9,15.06t-16.08,38.44q0,24.6,16.46,39.14T485.29,174a66.85,66.85,0,0,0,28.7-6.47,53,53,0,0,0,13.52-9.16v12.68H590V153.41h-22.1V131.12c0-13.84,1.22-23.45,3.59-28.77a20.58,20.58,0,0,1,11.08-11.08c5-2,12.56-3,22.68-3h4v-20ZM462.1,91a29.2,29.2,0,0,1,20.44-7.82,30.78,30.78,0,0,1,22.1,8.65c6,5.77,9.67,12.24,11.08,19.35h-64A33.45,33.45,0,0,1,462.1,91Z"/><path class="cls-2" d="M16.22,229.45v-26.9h9a13.85,13.85,0,0,1,5.58,1.08,10.88,10.88,0,0,1,4,2.89,11.1,11.1,0,0,1,2.37,4.29,17.33,17.33,0,0,1,.77,5.19,16.81,16.81,0,0,1-.9,5.57,11.67,11.67,0,0,1-2.56,4.23,11.52,11.52,0,0,1-4,2.76,13.94,13.94,0,0,1-5.25,1H16.22ZM36,216a15.51,15.51,0,0,0-.71-4.68,10.07,10.07,0,0,0-2.11-3.71,9.41,9.41,0,0,0-3.4-2.44,11.69,11.69,0,0,0-4.61-.89h-7v23.38h7a11.61,11.61,0,0,0,4.67-.9,8.79,8.79,0,0,0,3.4-2.5,11,11,0,0,0,2-3.71A12.89,12.89,0,0,0,36,216Z"/><path class="cls-2" d="M65.36,229.45V202.61h1.92v26.84Z"/><path class="cls-2" d="M116.29,225.29a12,12,0,0,1-9,4.35,11.22,11.22,0,0,1-5.06-1.15,12.54,12.54,0,0,1-4-3.07A15.26,15.26,0,0,1,95.6,221a13.9,13.9,0,0,1-1-5,15.63,15.63,0,0,1,.89-5.13,14.76,14.76,0,0,1,2.57-4.35,12,12,0,0,1,3.9-3,10.54,10.54,0,0,1,4.94-1.09,13,13,0,0,1,3.65.45,11.82,11.82,0,0,1,2.88,1.21,10.57,10.57,0,0,1,2.18,1.86,12.18,12.18,0,0,1,1.6,2.37l-1.54,1a8.9,8.9,0,0,0-3.65-3.84,11,11,0,0,0-5.12-1.22,8.66,8.66,0,0,0-4.3,1,11,11,0,0,0-3.26,2.69,12.92,12.92,0,0,0-2.12,3.78,14.34,14.34,0,0,0-.7,4.35,12.12,12.12,0,0,0,.83,4.55,13.41,13.41,0,0,0,2.31,3.78,11.79,11.79,0,0,0,3.46,2.63,9.81,9.81,0,0,0,8.84-.19,14.53,14.53,0,0,0,4.29-3.59V218H110.2v-1.53H118v13.07h-1.73v-4.23Z"/><path class="cls-2" d="M145.89,229.45V202.61h1.92v26.84Z"/><path class="cls-2" d="M195.79,204.34h-9.86v25.18H184V204.34h-9.86v-1.73h21.65Z"/><path class="cls-2" d="M216.42,229.45l11.47-26.9h1.6L241,229.45h-2.12l-3.78-8.84H222.25l-3.78,8.84Zm12.24-24.53-6,14.09h11.85Z"/><path class="cls-2" d="M267.09,229.45v-26.9H269v25.17H285.1v1.73Z"/><path class="cls-2" d="M360.75,229.45v-26.9H372a6.85,6.85,0,0,1,3.26.76,7.92,7.92,0,0,1,2.56,2,9.06,9.06,0,0,1,1.67,2.76,8.86,8.86,0,0,1,.58,3.13,9.29,9.29,0,0,1-.58,3.21,8.46,8.46,0,0,1-1.6,2.75,7.26,7.26,0,0,1-2.5,1.92,6.72,6.72,0,0,1-3.27.71h-8v9.67Zm3.4-12.68H372a3.89,3.89,0,0,0,1.92-.45,5.5,5.5,0,0,0,1.47-1.22,5.22,5.22,0,0,0,1-1.79,7,7,0,0,0-.06-4.36,6.41,6.41,0,0,0-1.09-1.79,4.36,4.36,0,0,0-1.54-1.15,4.63,4.63,0,0,0-1.86-.45h-7.62v11.21Z"/><path class="cls-2" d="M424.5,226.44v3H406.24v-26.9h17.94v3H409.63v8.77h12.62v2.82H409.63v9.29Z"/><path class="cls-2" d="M461.91,229.64a11.62,11.62,0,0,1-5.19-1.15,12.5,12.5,0,0,1-4-3.07,14.07,14.07,0,0,1-2.56-4.36,15.25,15.25,0,0,1-.9-5.06,14.09,14.09,0,0,1,3.65-9.48,13.3,13.3,0,0,1,4-3,11.18,11.18,0,0,1,5.06-1.09,10.44,10.44,0,0,1,5.12,1.21,12.59,12.59,0,0,1,4,3.14,14.42,14.42,0,0,1,2.57,4.36,14.83,14.83,0,0,1,.89,5,13.74,13.74,0,0,1-1,5.12,14.81,14.81,0,0,1-2.62,4.36,12.72,12.72,0,0,1-4,3A12.41,12.41,0,0,1,461.91,229.64ZM452.68,216a12,12,0,0,0,.65,4,11.35,11.35,0,0,0,1.85,3.4,9.83,9.83,0,0,0,2.95,2.37,8.6,8.6,0,0,0,7.62,0,8.78,8.78,0,0,0,2.89-2.44,10.59,10.59,0,0,0,1.79-3.39,11.52,11.52,0,0,0,.64-3.85,12,12,0,0,0-.64-4,11.11,11.11,0,0,0-1.92-3.39,9.37,9.37,0,0,0-2.95-2.31,8.1,8.1,0,0,0-3.71-.9,8.28,8.28,0,0,0-3.85.9,9.43,9.43,0,0,0-2.88,2.37,11.48,11.48,0,0,0-1.86,3.4A13.45,13.45,0,0,0,452.68,216Z"/><path class="cls-2" d="M501.31,229.45v-26.9h11.21a6.86,6.86,0,0,1,3.27.76,8.14,8.14,0,0,1,2.56,2,9.24,9.24,0,0,1,1.66,2.76,8.64,8.64,0,0,1,.58,3.13,9.07,9.07,0,0,1-.58,3.21,8.29,8.29,0,0,1-1.6,2.75,7.08,7.08,0,0,1-2.5,1.92,6.71,6.71,0,0,1-3.26.71h-7.88v9.67Zm3.46-12.68h7.81a3.9,3.9,0,0,0,1.93-.45A5.5,5.5,0,0,0,516,215.1a5.39,5.39,0,0,0,1-1.79,7,7,0,0,0-.06-4.36,6.41,6.41,0,0,0-1.09-1.79,4.36,4.36,0,0,0-1.54-1.15,4.63,4.63,0,0,0-1.86-.45h-7.62Z"/><path class="cls-2" d="M546.86,229.45v-26.9h3.39v23.89h15v3Z"/><path class="cls-2" d="M609.45,226.44v3H591.19v-26.9h17.94v3H594.58v8.77H607.2v2.82H594.58v9.29Z"/></g></svg>