<svg xmlns="http://www.w3.org/2000/svg" viewBox="0 0 623.62 255.12"><defs><style>.cls-1{fill:#fff;}.cls-2{fill:#1d1d1b;}.cls-3{fill:#12100b;}.cls-4{fill:#ef1c4d;}</style></defs><title>designbrothers</title><g id="BG"><rect class="cls-1" width="623.62" height="255.12"/></g><g id="Logo"><g id="Layer_2" data-name="Layer 2"><g id="Layer_1" data-name="Layer 1"><path class="cls-2" d="M155.43,180.78h-1.78V156.37h1.9v24.41Z"/><path class="cls-2" d="M176.61,158h-7.24v22.74h-1.9V158h-7.24v-1.67h16.38Z"/><path class="cls-2" d="M197.79,180.78h-2l-2.11-5.9H182.3l-2.12,5.9h-2l8.92-24.41h1.67Zm-4.68-7.58L188,158.82l-5.13,14.38Z"/><path class="cls-2" d="M216.85,180.78H202V156.37h1.89v22.74h12.93Z"/><path class="cls-2" d="M223.43,180.78h-1.9V156.37h1.9Z"/><path class="cls-2" d="M247.28,180.78h-2l-2.12-5.9H231.79l-2.12,5.9h-1.89l8.91-24.41h1.67Zm-4.68-7.58-5.13-14.38-5.12,14.38Z"/><path class="cls-2" d="M269.35,180.78h-1.89l-14-21.18v21.18h-1.89V156.37h1.89l14,21.07V156.37h1.89Z"/><path class="cls-2" d="M309.93,156.48l-6.14,24.41H301.9l-5.8-21.17-5.79,21.17h-1.9l-6.13-24.41h2l5.13,21.18,5.68-21.18H297l5.68,21.18,5.13-21.18Z"/><path class="cls-2" d="M330.66,180.78h-2l-2.12-5.9H315.16l-2.11,5.9h-2L320,156.37h1.67Zm-4.57-7.58L321,158.82l-5.13,14.38Z"/><path class="cls-2" d="M347.82,156.48l-7.13,14.27v10.14H338.8V170.75l-7.14-14.27h2l6.24,12.27,6-12.27Z"/><path class="cls-2" d="M374.24,158H367v22.74h-1.9V158h-7.24v-1.67h16.38Z"/><path class="cls-2" d="M394.86,168.63c0,2.23,0,3.79-.11,4.8a10,10,0,0,1-.56,2.78,7.08,7.08,0,0,1-1.56,2.34,6.75,6.75,0,0,1-2.78,1.79,8.28,8.28,0,0,1-3.35.67,9,9,0,0,1-3.34-.67,9.31,9.31,0,0,1-2.79-1.79,5.37,5.37,0,0,1-1.56-2.34,6.94,6.94,0,0,1-.56-2.78c-.11-1-.11-2.68-.11-4.8s0-3.79.11-4.79a10.86,10.86,0,0,1,.56-2.79,7.24,7.24,0,0,1,1.56-2.34,6.6,6.6,0,0,1,2.79-1.78,11.27,11.27,0,0,1,3.34-.67,8.49,8.49,0,0,1,3.35.67,8,8,0,0,1,2.78,1.78,7.73,7.73,0,0,1,1.56,2.34,6.82,6.82,0,0,1,.56,2.79C394.75,164.84,394.86,166.4,394.86,168.63Zm-1.89,0c0-1.89,0-3.34-.11-4.45a8.31,8.31,0,0,0-.56-2.57,4.9,4.9,0,0,0-1.23-1.89,6.47,6.47,0,0,0-2.12-1.45,6.89,6.89,0,0,0-4.9,0,6.47,6.47,0,0,0-2.12,1.45,5.26,5.26,0,0,0-1,1.33,6.87,6.87,0,0,0-.56,1.79,15.57,15.57,0,0,0-.22,2.45v3.34c0,1.9,0,3.35.11,4.46a7.77,7.77,0,0,0,.56,2.57,5.15,5.15,0,0,0,1.22,1.89,7.06,7.06,0,0,0,2.12,1.45,6.43,6.43,0,0,0,2.45.45,6.08,6.08,0,0,0,2.46-.45,6.34,6.34,0,0,0,2.11-1.45,5.05,5.05,0,0,0,1.23-1.89,12.76,12.76,0,0,0,.56-2.57Z"/><path class="cls-2" d="M425.74,173.87a8.24,8.24,0,0,1-1.56,3.79,6.75,6.75,0,0,1-2.9,2.45,8.69,8.69,0,0,1-3.9.9,9.09,9.09,0,0,1-3.35-.67,9.26,9.26,0,0,1-2.78-1.79,5.29,5.29,0,0,1-1.56-2.34,6.77,6.77,0,0,1-.56-2.78c-.11-1-.11-2.68-.11-4.8s0-3.79.11-4.79a10.07,10.07,0,0,1,.56-2.79,7.08,7.08,0,0,1,1.56-2.34,6.63,6.63,0,0,1,2.78-1.78,11.34,11.34,0,0,1,3.35-.67,9.22,9.22,0,0,1,3.9.89,7.7,7.7,0,0,1,2.9,2.45,10.68,10.68,0,0,1,1.56,3.79H424a7.17,7.17,0,0,0-2.22-4,6.07,6.07,0,0,0-4.13-1.45,5.9,5.9,0,0,0-2.45.45,5.51,5.51,0,0,0-2.12,1.45,5.13,5.13,0,0,0-1,1.34,6.67,6.67,0,0,0-.56,1.78,15.57,15.57,0,0,0-.22,2.45v3.35c0,1.89,0,3.34.11,4.45a7.77,7.77,0,0,0,.56,2.57,5,5,0,0,0,1.22,1.89,7.06,7.06,0,0,0,2.12,1.45,6.25,6.25,0,0,0,2.45.45,5.92,5.92,0,0,0,2.9-.67,6.24,6.24,0,0,0,2.23-1.9,7.66,7.66,0,0,0,1.23-2.89h1.67Z"/><path class="cls-2" d="M448.7,180.78h-2.12l-5.79-11.25H434.1v11.25h-1.9V156.37h9.26a7.38,7.38,0,0,1,3.56.78,5.88,5.88,0,0,1,2.45,2.23,7,7,0,0,1,.9,3.57,6.26,6.26,0,0,1-1.45,4.35,6.45,6.45,0,0,1-4.13,2.11ZM446.58,163a4.61,4.61,0,0,0-1.45-3.68,6,6,0,0,0-3.9-1.23H434v9.81h7.13a6.13,6.13,0,0,0,2.12-.33,6,6,0,0,0,1.67-.89,5.68,5.68,0,0,0,1.12-1.56A3.22,3.22,0,0,0,446.58,163Z"/><path class="cls-2" d="M469.43,180.78H454.61V156.37h14.82V158H456.5v9.59h11v1.67h-11v9.81h12.93Z"/><path class="cls-2" d="M491.39,180.78h-2l-2.12-5.9H475.9l-2.12,5.9h-1.89l8.91-24.41h1.67Zm-4.68-7.58-5.13-14.38-5.12,14.38Z"/><path class="cls-2" d="M509.34,158h-7.25v22.74H500.2V158H493v-1.67h16.39Z"/><path class="cls-2" d="M516,180.78h-1.9V156.37H516Z"/><path class="cls-2" d="M537.76,156.48l-8,24.41h-1.56l-8-24.41h2l6.8,21.07,6.79-21.07Z"/><path class="cls-2" d="M543.67,180.78h-1.9V156.37h1.9Z"/><path class="cls-2" d="M564.85,158H557.6v22.74h-1.89V158h-7.25v-1.67h16.39Z"/><path class="cls-2" d="M582.46,156.48l-7.13,14.27v10.14h-1.9V170.75l-7.13-14.27h2l6.25,12.27,6-12.27Z"/><path class="cls-3" d="M175.16,104.1a10.37,10.37,0,0,0-3.67-2.68,14.65,14.65,0,0,0-5.58-1,13.06,13.06,0,0,0-4.79.78,10,10,0,0,0-3.57,2.11q-4.35,4.18-4.35,13.72t4.35,13.71a11.73,11.73,0,0,0,8.36,2.89,19,19,0,0,0,3.68-.33,8.86,8.86,0,0,0,3.34-1.45,11.33,11.33,0,0,0,2.23-1.89v3.34h4.35V73.78h-4.35Zm-1.78,3.56a20.17,20.17,0,0,1,1.89,9.37,19.84,19.84,0,0,1-1.89,9.36c-1.23,2.23-3.46,3.34-7,3.34s-5.8-1.11-7-3.34a20.15,20.15,0,0,1-1.9-9.36,20.16,20.16,0,0,1,1.9-9.37c1.22-2.23,3.45-3.34,7-3.34S172.15,105.43,173.38,107.66Z"/><path class="cls-3" d="M213.62,104.65a12.08,12.08,0,0,0-4.35-3.12,15.12,15.12,0,0,0-5.68-1.11,13.29,13.29,0,0,0-5.69,1.11,11.65,11.65,0,0,0-4.34,3.35,16.4,16.4,0,0,0-2.68,5.23A25.93,25.93,0,0,0,190,117a21.82,21.82,0,0,0,1.67,9,12.9,12.9,0,0,0,4.9,5.69,15.78,15.78,0,0,0,7.92,1.89,17.7,17.7,0,0,0,6.8-1.22,18,18,0,0,0,5.46-3.79l.33-.34-3.34-2.56-.33.22a16.2,16.2,0,0,1-4,2.9,12,12,0,0,1-4.68.78c-3.34,0-5.91-1-7.58-3s-2.56-4.79-2.67-8.47H217.3v-2a23.67,23.67,0,0,0-.89-6.57A15.12,15.12,0,0,0,213.62,104.65Zm-.78,10H194.45a12.32,12.32,0,0,1,.33-2.67,16.25,16.25,0,0,1,.78-2.56,8,8,0,0,1,3.23-3.68,9.65,9.65,0,0,1,9.81,0,7.94,7.94,0,0,1,3.24,3.68,10.64,10.64,0,0,1,.78,2.45A14.53,14.53,0,0,1,212.84,114.68Z"/><path class="cls-3" d="M249.07,117.47a14.7,14.7,0,0,0-7.36-2.23l-5.35-.44a9.41,9.41,0,0,1-4.79-1.45,4,4,0,0,1-1.45-3.46,4.81,4.81,0,0,1,2-4.12,9.93,9.93,0,0,1,6-1.56,15.57,15.57,0,0,1,8.92,2.56l.33.22,3-2.89-.44-.34a17.9,17.9,0,0,0-5.24-2.56,24.62,24.62,0,0,0-6.58-.89,16.71,16.71,0,0,0-6.46,1.11,9.47,9.47,0,0,0-4.35,3.34,8.66,8.66,0,0,0-1.56,5q0,7.86,10.37,8.69l5.46.45a9.22,9.22,0,0,1,4.57,1.45,4.2,4.2,0,0,1,1.33,3.34,4.91,4.91,0,0,1-2.34,4.46,13.84,13.84,0,0,1-7.13,1.56c-4.46,0-8-1.22-10.48-3.79l-.33-.33-3.12,2.9.33.33q5,4.68,13.71,4.68a22.82,22.82,0,0,0,7.14-1.11,9.81,9.81,0,0,0,4.79-3.46,8.44,8.44,0,0,0,1.67-5.24C251.85,120.93,251,118.7,249.07,117.47Z"/><rect class="cls-3" x="261.44" y="100.86" width="4.35" height="32.44"/><path class="cls-3" d="M263.56,85.37a3,3,0,0,0-2.12.89,2.85,2.85,0,0,0-.89,2.12,2.75,2.75,0,0,0,.89,2,3.05,3.05,0,0,0,2.12.9,3.08,3.08,0,0,0,3-3,3.06,3.06,0,0,0-3-2.9Z"/><path class="cls-3" d="M298.22,104.1a10.32,10.32,0,0,0-3.68-2.68,14.56,14.56,0,0,0-5.57-1,13.06,13.06,0,0,0-4.79.78,10,10,0,0,0-3.57,2.11q-4.35,4.18-4.35,13.72t4.35,13.71a11.73,11.73,0,0,0,8.36,2.89,19.07,19.07,0,0,0,3.68-.33,8.93,8.93,0,0,0,3.34-1.45,11.33,11.33,0,0,0,2.23-1.89v4.34a11.58,11.58,0,0,1-2.45,7.69c-1.56,1.9-4,2.9-7.13,2.9a9.43,9.43,0,0,1-4.35-.78,19.44,19.44,0,0,1-3.9-2.56l-.34-.23-3,2.79.45.34a22.38,22.38,0,0,0,5.24,3.34,15.3,15.3,0,0,0,5.91.89A14.15,14.15,0,0,0,296,146.9a12.27,12.27,0,0,0,4.8-5,15.48,15.48,0,0,0,1.67-7.24V100.86h-4.35v3.24Zm-1.78,3.56a20.3,20.3,0,0,1,1.89,9.37,20,20,0,0,1-1.89,9.36c-1.23,2.23-3.46,3.34-7,3.34s-5.8-1.11-6.92-3.34a20.28,20.28,0,0,1-1.89-9.36,20.3,20.3,0,0,1,1.89-9.37c1.23-2.23,3.46-3.34,6.92-3.34S295.21,105.43,296.44,107.66Z"/><path class="cls-3" d="M337.68,103.54c-2.23-2.12-5.24-3.12-9-3.12a12.87,12.87,0,0,0-9.25,3.45v-3h-4.35V133.3h4.35V113.24a11,11,0,0,1,1-4.91,6.6,6.6,0,0,1,3-3,10.51,10.51,0,0,1,4.8-1,8.68,8.68,0,0,1,6.46,2.34,9.49,9.49,0,0,1,2.23,6.69v20.06h4.35V112.79C341.25,108.78,340,105.77,337.68,103.54Z"/><path class="cls-3" d="M376.36,102.09a10.39,10.39,0,0,0-3.79-2.23,14.72,14.72,0,0,0-5-.78A16.64,16.64,0,0,0,362,100a14.38,14.38,0,0,0-3,1.78V74.11h-6.69V133H359V130.4a6.44,6.44,0,0,0,1.45,1,10.29,10.29,0,0,0,3.45,1.45,18.72,18.72,0,0,0,3.79.34,15,15,0,0,0,5-.78,10.39,10.39,0,0,0,3.79-2.23,12.5,12.5,0,0,0,3.46-6,36.08,36.08,0,0,0,.89-8.14,36.89,36.89,0,0,0-.89-8.14A13.1,13.1,0,0,0,376.36,102.09ZM374,116.24a19.55,19.55,0,0,1-1.56,8.48c-1,1.89-2.9,2.78-5.91,2.78s-4.9-.89-5.91-2.78a17.94,17.94,0,0,1-1.67-8.48,18.23,18.23,0,0,1,1.67-8.47c1-1.89,2.9-2.78,5.91-2.78s4.9.89,5.91,2.78S374,112.68,374,116.24Z"/><path class="cls-3" d="M404.67,99.08a14.39,14.39,0,0,0-5.79,1.23A10.55,10.55,0,0,0,396.2,102V99.41h-6.69v33.67h6.69v-20.4a9.54,9.54,0,0,1,.89-4,6.69,6.69,0,0,1,6.24-3.68,7.63,7.63,0,0,1,2.9.44,7.73,7.73,0,0,1,2.34,1.67l.67.56.56-.56,3.57-3.45L414,103l-.66-.67A12.14,12.14,0,0,0,404.67,99.08Z"/><path class="cls-3" d="M441.34,103a15.43,15.43,0,0,0-20.51,0,12.47,12.47,0,0,0-3.45,5.8,29.92,29.92,0,0,0-.89,7.58,36.41,36.41,0,0,0,.33,5.12,15.71,15.71,0,0,0,1.34,4.46,13,13,0,0,0,2.67,3.79,15.43,15.43,0,0,0,20.51,0,13.7,13.7,0,0,0,2.79-3.9,16,16,0,0,0,1.34-4.46,35.36,35.36,0,0,0,.33-5.13,29.9,29.9,0,0,0-.89-7.57A14.39,14.39,0,0,0,441.34,103Zm-17.72,7.69a7.29,7.29,0,0,1,1.9-3.57A7.68,7.68,0,0,1,431,105a7.76,7.76,0,0,1,5.57,2.11,6.31,6.31,0,0,1,1.9,3.46,28.35,28.35,0,0,1,.44,5.68,27.7,27.7,0,0,1-.44,5.69,6.25,6.25,0,0,1-1.9,3.45A7.39,7.39,0,0,1,431,127.5a7.29,7.29,0,0,1-5.46-2.12,6.14,6.14,0,0,1-1.9-3.56,34.76,34.76,0,0,1,0-11.15Z"/><path class="cls-3" d="M462,99.64V85.37h-6.68V99.64H451V105h4.24V123.6a9.36,9.36,0,0,0,2.45,6.69,9.16,9.16,0,0,0,7,2.67h4.35v-5.79h-3.46c-2.56,0-3.68-1.12-3.68-3.79v-18.5h7.14V99.52H462Z"/><path class="cls-3" d="M499.19,100.64a14.72,14.72,0,0,0-6.91-1.56,12.7,12.7,0,0,0-8.47,2.79V85.26h-6.69v47.93h6.69V112.57a7.25,7.25,0,0,1,2-5.58c1.34-1.33,3.12-1.89,5.57-1.89a8.82,8.82,0,0,1,4,.89,5.27,5.27,0,0,1,2.46,2.45,9.68,9.68,0,0,1,.89,4.24V133.3h6.69V111.9a14.12,14.12,0,0,0-1.56-6.69A11.51,11.51,0,0,0,499.19,100.64Z"/><path class="cls-3" d="M536.2,101.09a15.15,15.15,0,0,0-7.91-2,15.64,15.64,0,0,0-6.13,1.23,13.13,13.13,0,0,0-4.69,3.45,16,16,0,0,0-2.89,5.46,23.45,23.45,0,0,0-1,7.14,22.14,22.14,0,0,0,1.9,9.58,12.52,12.52,0,0,0,5.46,5.8,17.6,17.6,0,0,0,8.14,1.89,19.62,19.62,0,0,0,7.24-1.22,19.31,19.31,0,0,0,5.69-3.9l.67-.67-.78-.67-3.35-2.79-.56-.44-.55.55a12.1,12.1,0,0,1-3.79,2.57,13,13,0,0,1-4.46.78,8.71,8.71,0,0,1-6.69-2.57,10,10,0,0,1-2.34-6.57H543v-3.24a20.75,20.75,0,0,0-1.67-8.58A13.65,13.65,0,0,0,536.2,101.09Zm-15.83,12a16.94,16.94,0,0,1,.89-4.12,6.29,6.29,0,0,1,2.79-3.12,7.93,7.93,0,0,1,4.35-1.12,8.56,8.56,0,0,1,4.35,1.23,6.32,6.32,0,0,1,2.78,3.12,12.46,12.46,0,0,1,.89,4.13h-16Z"/><path class="cls-3" d="M566.85,99.08a14.42,14.42,0,0,0-5.79,1.23,10.55,10.55,0,0,0-2.68,1.67V99.41h-6.69v33.67h6.69v-20.4a9.69,9.69,0,0,1,.89-4,6.72,6.72,0,0,1,6.25-3.68,7.61,7.61,0,0,1,2.89.44,7.88,7.88,0,0,1,2.35,1.67l.66.56.56-.56,3.57-3.45.67-.67-.67-.67A12.33,12.33,0,0,0,566.85,99.08Z"/><path class="cls-3" d="M603.53,116a13.79,13.79,0,0,0-7.81-2.56l-5.35-.45c-4.57-.33-5.12-2.34-5.12-3.79a3.73,3.73,0,0,1,1.56-3.12,9.11,9.11,0,0,1,5.12-1.22,14.37,14.37,0,0,1,8.48,2.34l.55.44.56-.56,3.23-3,.78-.67-.78-.67a17.34,17.34,0,0,0-5.57-2.79,28,28,0,0,0-7-.89,15.9,15.9,0,0,0-9.48,2.67,8.84,8.84,0,0,0-3.79,7.58c0,5.69,3.68,8.81,10.81,9.48l5.58.44a6.39,6.39,0,0,1,3.79,1.23,3.19,3.19,0,0,1,1,2.56,3.86,3.86,0,0,1-1.89,3.46,11.67,11.67,0,0,1-6.13,1.34c-4.24,0-7.58-1.12-9.81-3.46l-.56-.56-.67.56-3.23,3.12-.67.67.67.67a18.22,18.22,0,0,0,6.35,3.68,25.44,25.44,0,0,0,8,1.11,21.8,21.8,0,0,0,7.46-1.22,10.9,10.9,0,0,0,5.13-3.57,9.26,9.26,0,0,0,1.9-5.8C606.42,119.81,605.42,117.47,603.53,116Z"/><path class="cls-4" d="M30.51,181.34V176.9H70.83A49.2,49.2,0,0,0,105,92.17a49.81,49.81,0,0,0-34.66-13.9H35v9.1H70.83a40.22,40.22,0,1,1,0,80.43H17V87.32H30.51V73.78H70.83a53.76,53.76,0,1,1,0,107.51H30.51Zm-9.09-18h49a36.07,36.07,0,0,0,25.06-10A35.73,35.73,0,0,0,70.78,91.76H34.91v62.6H30.46V91.76H21.37v71.6Z"/></g></g></g></svg>