<?xml version="1.0" encoding="utf-8"?>
<!-- Generator: Adobe Illustrator 16.0.3, SVG Export Plug-In . SVG Version: 6.00 Build 0)  -->
<!DOCTYPE svg PUBLIC "-//W3C//DTD SVG 1.1//EN" "http://www.w3.org/Graphics/SVG/1.1/DTD/svg11.dtd">
<svg version="1.1" xmlns="http://www.w3.org/2000/svg" xmlns:xlink="http://www.w3.org/1999/xlink" x="0px" y="0px" width="623.6px"
	 height="255.1px" viewBox="0 0 623.6 255.1" style="enable-background:new 0 0 623.6 255.1;" xml:space="preserve">
<style type="text/css">
<![CDATA[
	.st0{fill:#2F5552;}
]]>
</style>
<g id="BG">
</g>
<g id="Logo">
	<g>
		<polygon points="300.2,179.1 300.2,76 316.4,76 316.4,164.7 371.7,164.7 371.7,179.1 		"/>
		<rect x="385" y="76" width="16.3" height="103"/>
		<polygon points="440.7,106.5 440.7,179.1 424.4,179.1 424.4,76 437.2,76 496.1,150.3 496.1,76.2 512.5,76.2 512.5,179.1 
			499,179.1 		"/>
		<polygon points="606.4,164.7 606.4,179.1 535.7,179.1 535.7,76 605.1,76 605.1,90.4 552,90.4 552,119.7 598,119.7 598,133.2 
			552,133.2 552,164.7 		"/>
		<path d="M33.9,118.9c0.4-1.7,0.8-3.4,1.3-5.1c1.5-4.5,3.7-8.5,6.5-12c2.8-3.5,6.2-6.3,10.3-8.5c4.1-2.2,8.7-3.3,13.9-3.3
			c4.9,0,9.4,1,13.4,3.1c4,2.1,7.4,4.8,10.3,8.3c2.8,3.4,5.1,7.4,6.6,11.9c0.6,1.8,1.1,3.6,1.4,5.5h16.8c-0.6-3.5-1.5-6.9-2.8-10.3
			c-2.4-6.2-5.7-11.8-10-16.8c-4.3-4.9-9.5-8.9-15.5-12c-6.1-3-12.8-4.6-20.1-4.6c-7.2,0-13.8,1.4-19.8,4.3
			c-6,2.9-11.3,6.7-15.7,11.5c-4.4,4.8-7.9,10.4-10.4,16.7c-1.4,3.6-2.4,7.3-3,11.1H33.9z"/>
		<path class="st0" d="M97.7,136.2c-0.3,1.7-0.7,3.3-1.3,5c-1.5,4.5-3.6,8.5-6.4,12.1c-2.8,3.6-6.2,6.5-10.2,8.6
			c-4,2.2-8.6,3.3-13.9,3.3c-5,0-9.6-1-13.6-3.1c-4.1-2.1-7.5-4.9-10.4-8.3c-2.9-3.5-5.1-7.5-6.6-12.1c-0.6-1.8-1.1-3.6-1.4-5.4
			H17.2c0.6,3.6,1.5,7.1,2.8,10.6c2.4,6.3,5.7,11.9,10.1,16.8c4.4,4.9,9.5,8.8,15.6,11.8c6,3,12.7,4.4,20.1,4.4
			c7.1,0,13.6-1.4,19.7-4.3c6.1-2.9,11.3-6.7,15.8-11.5c4.5-4.8,7.9-10.3,10.4-16.6c1.4-3.6,2.4-7.4,3-11.2H97.7z"/>
		<rect x="148.4" y="136.6" class="st0" width="16.3" height="42.9"/>
		<polygon class="st0" points="215.8,136.6 215.8,150.7 204.6,136.6 184.2,136.6 218.7,179.4 232.2,179.4 232.2,136.6 		"/>
		<polygon points="148.4,118.9 148.4,90.4 200.8,90.4 200.8,76 132.1,76 132.1,118.9 		"/>
		<polygon points="232.4,118.9 232.4,90.4 284.8,90.4 284.8,76 216.2,76 216.2,118.9 		"/>
		<path d="M33.9,118.9c0.4-1.7,0.8-3.4,1.3-5.1c1.5-4.5,3.7-8.5,6.5-12c2.8-3.5,6.2-6.3,10.3-8.5c4.1-2.2,8.7-3.3,13.9-3.3
			c4.9,0,9.4,1,13.4,3.1c4,2.1,7.4,4.8,10.3,8.3c2.8,3.4,5.1,7.4,6.6,11.9c0.6,1.8,1.1,3.6,1.4,5.5h16.8c-0.6-3.5-1.5-6.9-2.8-10.3
			c-2.4-6.2-5.7-11.8-10-16.8c-4.3-4.9-9.5-8.9-15.5-12c-6.1-3-12.8-4.6-20.1-4.6c-7.2,0-13.8,1.4-19.8,4.3
			c-6,2.9-11.3,6.7-15.7,11.5c-4.4,4.8-7.9,10.4-10.4,16.7c-1.4,3.6-2.4,7.3-3,11.1H33.9z"/>
		<path class="st0" d="M97.7,136.2c-0.3,1.7-0.7,3.3-1.3,5c-1.5,4.5-3.6,8.5-6.4,12.1c-2.8,3.6-6.2,6.5-10.2,8.6
			c-4,2.2-8.6,3.3-13.9,3.3c-5,0-9.6-1-13.6-3.1c-4.1-2.1-7.5-4.9-10.4-8.3c-2.9-3.5-5.1-7.5-6.6-12.1c-0.6-1.8-1.1-3.6-1.4-5.4
			H17.2c0.6,3.6,1.5,7.1,2.8,10.6c2.4,6.3,5.7,11.9,10.1,16.8c4.4,4.9,9.5,8.8,15.6,11.8c6,3,12.7,4.4,20.1,4.4
			c7.1,0,13.6-1.4,19.7-4.3c6.1-2.9,11.3-6.7,15.8-11.5c4.5-4.8,7.9-10.3,10.4-16.6c1.4-3.6,2.4-7.4,3-11.2H97.7z"/>
		<rect x="148.4" y="136.6" class="st0" width="16.3" height="42.9"/>
		<polygon class="st0" points="215.8,136.6 215.8,150.7 204.6,136.6 184.2,136.6 218.7,179.4 232.2,179.4 232.2,136.6 		"/>
		<polygon points="148.4,118.9 148.4,90.4 200.8,90.4 200.8,76 132.1,76 132.1,118.9 		"/>
		<polygon points="232.4,118.9 232.4,90.4 284.8,90.4 284.8,76 216.2,76 216.2,118.9 		"/>
	</g>
</g>
</svg>
