<svg xmlns="http://www.w3.org/2000/svg" viewBox="0 0 623.62 255.12"><defs><style>.cls-1{fill:#fff;}.cls-2{fill:#3d3935;}.cls-3{fill:#ff4d00;}.cls-4{fill:#515254;}</style></defs><title>playcar</title><g id="BG"><rect class="cls-1" width="623.62" height="255.12"/></g><g id="Logo"><g id="Livello_2" data-name="Livello 2"><path class="cls-2" d="M117,122.42A28.54,28.54,0,1,1,88.42,93.89,28.54,28.54,0,0,1,117,122.42Z"/><polygon class="cls-3" points="103.21 163.73 88.42 206.31 73.64 163.73 103.21 163.73"/><path class="cls-2" d="M162.9,123.28a74.47,74.47,0,0,1-57.76,72.55l7.62-22.3a55.78,55.78,0,1,0-48.68,0l7.59,22.3a74.46,74.46,0,1,1,91.23-72.55Z"/><path class="cls-2" d="M185.09,165.11l10.77-68.23h18.45l-1.21,7.68a28.31,28.31,0,0,1,9-7.06,23.56,23.56,0,0,1,10.43-2.37,19.63,19.63,0,0,1,15.69,7.16q6.11,7.17,6.07,18.58,0,14.38-8.26,23.87a26.35,26.35,0,0,1-20.72,9.5,21.27,21.27,0,0,1-10.11-2.39,27.6,27.6,0,0,1-8.54-7.41c0,1.76,0,3.37-.14,4.87a33.44,33.44,0,0,1-.4,3.86l-1.74,11.91Zm49.16-41.76a11.16,11.16,0,0,0-11.79-11.79,12.23,12.23,0,0,0-9.74,4.5,16.71,16.71,0,0,0-3.88,11.3,11,11,0,0,0,3.25,8.31,11.6,11.6,0,0,0,8.44,3.16,12.59,12.59,0,0,0,9.85-4.36,16.25,16.25,0,0,0,3.82-11.13Z"/><path class="cls-2" d="M270,82.34h19.7l-11.16,70H258.85Z"/><path class="cls-2" d="M333.36,144.91a27.76,27.76,0,0,1-8.91,7.05,23.93,23.93,0,0,1-10.58,2.38,19.6,19.6,0,0,1-15.65-7.18q-6.11-7.18-6.1-18.65,0-14.38,8.29-23.89a26.33,26.33,0,0,1,20.67-9.49,22,22,0,0,1,10.32,2.38,24.65,24.65,0,0,1,8.22,7.41l1.28-8h18.57l-8.76,55.43H332.53Zm-21.55-18.33a11.14,11.14,0,0,0,11.81,11.8,12.26,12.26,0,0,0,9.68-4.53,16.9,16.9,0,0,0,3.87-11.34,11.24,11.24,0,0,0-3.24-8.36,11.48,11.48,0,0,0-8.45-3.22,12.46,12.46,0,0,0-9.79,4.45,16.42,16.42,0,0,0-3.89,11.2Z"/><path class="cls-2" d="M375.83,149.52,360.08,96.88h20.27l4.82,24c.08.31.19.78.34,1.42a48.53,48.53,0,0,1,1.15,8.23q.66-2.34,1.55-4.59c.68-1.63,1.43-3.37,2.35-5.29L402,96.88h21l-35.85,68.23H366.76Z"/><path class="cls-3" d="M466.21,117.14a22.62,22.62,0,0,0-6.13-4.83,14,14,0,0,0-6.49-1.59,12.34,12.34,0,0,0-9.67,4.46,16.29,16.29,0,0,0-3.9,11.06q0,5.49,3,8.7a10.66,10.66,0,0,0,8.18,3.21,17.56,17.56,0,0,0,6.33-1.15,23.63,23.63,0,0,0,6.06-3.45l-2.94,18.22a49.47,49.47,0,0,1-7.55,2,41,41,0,0,1-7.16.68q-11.76,0-19-7.6T419.67,127q0-14.32,9-23.24t23.58-8.93a29.49,29.49,0,0,1,8.89,1.35,26,26,0,0,1,7.73,4Z"/><path class="cls-3" d="M514.43,144.91a27.76,27.76,0,0,1-8.91,7.05,23.93,23.93,0,0,1-10.58,2.38,19.6,19.6,0,0,1-15.65-7.18q-6.14-7.18-6.14-18.65,0-14.38,8.3-23.89a26.37,26.37,0,0,1,20.69-9.49,22,22,0,0,1,10.31,2.38,24.58,24.58,0,0,1,8.23,7.41l1.28-8H540.5l-8.76,55.43H513.49Zm-21.55-18.33a11.13,11.13,0,0,0,11.79,11.8,12.22,12.22,0,0,0,9.7-4.53,16.85,16.85,0,0,0,3.87-11.34,11.27,11.27,0,0,0-3.23-8.36,11.52,11.52,0,0,0-8.47-3.22,12.43,12.43,0,0,0-9.79,4.45,16.47,16.47,0,0,0-3.89,11.2Z"/><path class="cls-3" d="M543.06,152.31l8.76-55.43h18.77l-1.34,9.43a19.05,19.05,0,0,1,6.91-8,18.44,18.44,0,0,1,10.1-2.74,9.39,9.39,0,0,1,1.35.07c.49.08,1.34.19,2.41.36l-3.9,17.4c-1.28-.28-2.43-.51-3.46-.68a22.57,22.57,0,0,0-3-.22,11.47,11.47,0,0,0-8.9,3.55c-2.2,2.35-3.67,6-4.48,10.94l-3.95,25.3Z"/><path class="cls-4" d="M609.65,103.33a6.06,6.06,0,1,1-6.23-5.88h.23a5.93,5.93,0,0,1,6,5.85Zm-10.59,0A4.58,4.58,0,0,0,603.5,108h.15a4.5,4.5,0,0,0,4.49-4.52v-.14a4.55,4.55,0,0,0-9.08-.49,4,4,0,0,0,0,.49Zm3.62,3h-1.34v-5.89a17.07,17.07,0,0,1,2.26-.18,3.18,3.18,0,0,1,2,.47,1.48,1.48,0,0,1,.61,1.26,1.52,1.52,0,0,1-1.22,1.4v.07c.57.18.86.67,1,1.44a5.13,5.13,0,0,0,.43,1.43H605a4.9,4.9,0,0,1-.47-1.43c-.11-.62-.46-.9-1.22-.9h-.67Zm0-3.3h.67c.76,0,1.35-.25,1.35-.86s-.4-.9-1.26-.9a3.74,3.74,0,0,0-.75.07Z"/></g></g></svg>